<?xml version="1.0" encoding="UTF-8" standalone="no" ?>
<!DOCTYPE svg PUBLIC "-//W3C//DTD SVG 1.1//EN" "http://www.w3.org/Graphics/SVG/1.1/DTD/svg11.dtd">
<svg xmlns="http://www.w3.org/2000/svg" xmlns:xlink="http://www.w3.org/1999/xlink" version="1.1" width="640" height="480" viewBox="0 0 640 480" xml:space="preserve">
<desc>Created with Fabric.js 3.6.3</desc>
<defs>
</defs>
<g transform="matrix(1 0 0 1 144.51 177.5)"  >
<g style=""   >
		<g transform="matrix(-0.02 0 0 -0.02 109.68 -45.19)"  >
<path style="stroke: none; stroke-width: 1; stroke-dasharray: none; stroke-linecap: butt; stroke-dashoffset: 0; stroke-linejoin: miter; stroke-miterlimit: 4; fill: rgb(0,0,0); fill-rule: nonzero; opacity: 1;"  transform=" translate(-3197.01, -6401.1)" d="M 3045 12793 c -109 -14 -262 -62 -370 -115 c -114 -57 -336 -214 -382 -270 c -7 -8 -62 -255 -123 -549 c -116 -559 -397 -1924 -471 -2284 c -70 -342 -60 -497 42 -655 c 61 -94 151 -202 257 -308 c 123 -122 222 -200 337 -264 c 78 -44 93 -56 90 -73 c -3 -11 -21 -151 -40 -312 c -37 -312 -44 -504 -25 -678 c 9 -72 18 -103 48 -160 c 31 -58 45 -73 80 -90 c 36 -17 42 -24 42 -51 c 0 -29 -4 -32 -69 -58 c -87 -34 -96 -54 -81 -166 c 21 -152 22 -206 11 -700 c -6 -278 -16 -692 -21 -920 c -5 -228 -12 -532 -16 -675 l -7 -260 l 94 -31 l 94 -30 l 5 -2000 c 5 -1836 6 -2001 22 -2029 c 20 -37 52 -67 98 -91 c 50 -27 227 -26 285 1 c 61 29 135 110 189 208 l 49 88 l -4 1934 c -4 1710 -2 1936 11 1948 c 8 8 122 80 253 161 l 237 147 l 0 37 c 0 20 -7 132 -15 247 c -7 116 -19 318 -25 450 c -22 499 -34 641 -99 1175 c -11 85 -22 187 -25 225 l -6 71 l 53 26 l 52 27 l -67 0 c -79 1 -74 -7 -87 146 c -8 108 -4 127 40 185 c 30 40 43 76 58 171 c 6 37 17 84 25 105 c 11 33 11 48 0 96 l -14 57 l 113 265 l 112 265 l 75 27 c 104 37 184 78 230 120 c 44 40 62 88 159 424 c 44 154 137 599 202 970 c 11 63 31 171 44 240 c 72 369 184 1048 215 1303 c 11 89 20 205 20 260 c 0 87 -4 112 -37 210 c -44 135 -193 434 -286 574 c -76 115 -128 164 -276 264 c -331 223 -825 377 -1096 342 z" stroke-linecap="round" />
</g>
		<g transform="matrix(3.53 0 0 3.53 0.42 154.61)"  >
<path style="stroke: none; stroke-width: 1; stroke-dasharray: none; stroke-linecap: butt; stroke-dashoffset: 0; stroke-linejoin: miter; stroke-miterlimit: 4; fill: rgb(0,0,0); fill-rule: nonzero; opacity: 1;"  transform=" translate(-39.63, -93.8)" d="m 39.632 94.277 c -10.132 0 -20.78 -2.319 -24.387 -6.678 c -0.004 0.064 -0.026 0.125 -0.026 0.192 c 0 0 0.008 0.063 0.021 0.156 c 0.028 0.558 0.187 1.101 0.492 1.628 c 1.18 2.836 5.047 8.232 17.745 9.933 c 1.872 0.313 3.955 0.49 6.156 0.49 c 2.205 0 4.285 -0.177 6.16 -0.49 c 12.697 -1.698 16.564 -7.097 17.742 -9.933 c 0.305 -0.527 0.463 -1.07 0.492 -1.628 c 0.014 -0.093 0.023 -0.156 0.023 -0.156 c 0 -0.067 -0.023 -0.128 -0.027 -0.192 c -3.609 4.359 -14.259 6.678 -24.391 6.678 z" stroke-linecap="round" />
</g>
		<g transform="matrix(3.53 0 0 3.53 0.38 115.14)"  >
<ellipse style="stroke: none; stroke-width: 1; stroke-dasharray: none; stroke-linecap: butt; stroke-dashoffset: 0; stroke-linejoin: miter; stroke-miterlimit: 4; fill: rgb(0,0,0); fill-rule: nonzero; opacity: 1;"  cx="0" cy="0" rx="24.415001" ry="8.7189999" />
</g>
		<g transform="matrix(3.53 0 0 3.53 -110.77 -45.15)"  >
<path style="stroke: none; stroke-width: 1; stroke-dasharray: none; stroke-linecap: butt; stroke-dashoffset: 0; stroke-linejoin: miter; stroke-miterlimit: 4; fill: rgb(0,0,0); fill-rule: nonzero; opacity: 1;"  transform=" translate(-8.14, -37.21)" d="m 16.28 25.584 l 0 -4.652 l 0 -4.652 l 0 -15.118 C 16.28 0.521 15.825 0 15.263 0 C 14.701 0 14.245 0.521 14.245 1.162 l 0 15.118 c 0 0.856 -0.608 1.553 -1.357 1.553 c -0.75 -0.002 -1.357 -0.696 -1.357 -1.553 l 0 -15.118 C 11.532 0.521 11.076 0 10.515 0 C 9.954 0 9.497 0.52 9.497 1.164 l 0 15.122 c -0.004 0.853 -0.606 1.547 -1.355 1.547 c -0.75 0 -1.357 -0.696 -1.357 -1.553 l 0 -15.118 C 6.785 0.521 6.33 0 5.766 0 C 5.205 0 4.749 0.521 4.749 1.162 l 0 15.118 c 0 0.856 -0.606 1.553 -1.357 1.551 c -0.747 0 -1.353 -0.694 -1.357 -1.551 l 0 -15.118 C 2.035 0.521 1.581 0 1.018 0 C 0.456 0 0.002 0.521 0.002 1.162 l 0 15.118 l -0.002 4.654 l 0 4.65 c 0.004 0.977 2.126 1.811 5.123 2.154 C 5.111 27.92 5.088 28.095 5.09 28.28 l 0 41.115 c -0.002 2.764 1.372 5.022 3.052 5.022 c 1.677 0.002 3.052 -2.26 3.052 -5.022 l 0 -41.115 c 0 -0.186 -0.022 -0.36 -0.032 -0.542 c 2.994 -0.343 5.116 -1.177 5.118 -2.154 z" stroke-linecap="round" />
</g>
		<g transform="matrix(3.53 0 0 3.53 -2.7 0.01)"  >
<path style="stroke: none; stroke-width: 1; stroke-dasharray: none; stroke-linecap: butt; stroke-dashoffset: 0; stroke-linejoin: miter; stroke-miterlimit: 4; fill: rgb(0,0,0); fill-rule: nonzero; opacity: 1;"  transform=" translate(-38.76, -50)" d="m 24.048 72.093 l 29.423 0 c 2.475 0 4.5 -2.026 4.5 -4.5 l 0 -35.185 c 0 -2.475 -2.025 -4.501 -4.5 -4.501 l -6.058 0 c 3.82 7.722 8.299 15.687 8.353 15.778 l 1.979 3.518 l -3.84 -1.241 c -0.004 -0.002 -0.887 -0.277 -1.885 -0.277 c -0.889 0 -1.525 0.21 -1.893 0.623 c -0.467 0.524 -0.629 1.521 -0.469 2.881 c 0.309 2.608 0.575 11.475 -8.971 15.984 l -1.951 0.923 l -0.285 -2.141 C 38.002 60.588 35.831 51.85 31.245 51.85 c -0.191 0 -0.389 0.018 -0.59 0.045 c -0.026 0.002 -0.222 0.028 -0.563 0.028 c -1.498 0 -6.541 -0.577 -8.573 -8.024 l -0.127 -0.462 l 0.151 -0.453 c 1.045 -3.136 3.926 -10.624 5.653 -15.076 l -3.151 0 c -2.476 0 -4.5 2.026 -4.5 4.501 l 0 35.185 c 0.003 2.472 2.027 4.499 4.503 4.499 z" stroke-linecap="round" />
</g>
		<g transform="matrix(3.53 0 0 3.53 -2.83 -26.56)"  >
<path style="stroke: none; stroke-width: 1; stroke-dasharray: none; stroke-linecap: butt; stroke-dashoffset: 0; stroke-linejoin: miter; stroke-miterlimit: 4; fill: rgb(0,0,0); fill-rule: nonzero; opacity: 1;"  transform=" translate(-38.72, -42.48)" d="m 52.664 42.332 c 0 0 -5.006 -8.893 -8.644 -16.526 c -1.812 1.258 -4.005 1.996 -6.374 1.996 c -2.575 0 -4.941 -0.877 -6.836 -2.338 c -0.854 2.188 -4.846 12.421 -6.038 16.002 c 1.827 6.693 6.575 6.093 6.575 6.093 c 6.822 -0.975 8.526 11.935 8.526 11.935 c 6.699 -3.168 7.615 -9.146 7.185 -12.789 c -0.76 -6.43 5.606 -4.373 5.606 -4.373 z" stroke-linecap="round" />
</g>
		<g transform="matrix(3.53 0 0 3.53 -6.79 -126.88)"  >
<circle style="stroke: none; stroke-width: 1; stroke-dasharray: none; stroke-linecap: butt; stroke-dashoffset: 0; stroke-linejoin: miter; stroke-miterlimit: 4; fill: rgb(0,0,0); fill-rule: nonzero; opacity: 1;"  cx="0" cy="0" r="11.725" />
</g>
</g>
</g>
</svg>