<?xml version="1.0" standalone="no"?>
<!DOCTYPE svg PUBLIC "-//W3C//DTD SVG 20010904//EN"
 "http://www.w3.org/TR/2001/REC-SVG-20010904/DTD/svg10.dtd">
<svg version="1.0" xmlns="http://www.w3.org/2000/svg"
 width="640.000000pt" height="1280.000000pt" viewBox="0 0 640.000000 1280.000000"
 preserveAspectRatio="xMidYMid meet">
<metadata>
Created by potrace 1.15, written by Peter Selinger 2001-2017
</metadata>
<g transform="translate(0.000000,1280.000000) scale(0.100000,-0.100000)"
fill="#000000" stroke="none">
<path d="M3045 12793 c-109 -14 -262 -62 -370 -115 -114 -57 -336 -214 -382
-270 -7 -8 -62 -255 -123 -549 -116 -559 -397 -1924 -471 -2284 -70 -342 -60
-497 42 -655 61 -94 151 -202 257 -308 123 -122 222 -200 337 -264 78 -44 93
-56 90 -73 -3 -11 -21 -151 -40 -312 -37 -312 -44 -504 -25 -678 9 -72 18
-103 48 -160 31 -58 45 -73 80 -90 36 -17 42 -24 42 -51 0 -29 -4 -32 -69 -58
-87 -34 -96 -54 -81 -166 21 -152 22 -206 11 -700 -6 -278 -16 -692 -21 -920
-5 -228 -12 -532 -16 -675 l-7 -260 94 -31 94 -30 5 -2000 c5 -1836 6 -2001
22 -2029 20 -37 52 -67 98 -91 50 -27 227 -26 285 1 61 29 135 110 189 208
l49 88 -4 1934 c-4 1710 -2 1936 11 1948 8 8 122 80 253 161 l237 147 0 37 c0
20 -7 132 -15 247 -7 116 -19 318 -25 450 -22 499 -34 641 -99 1175 -11 85
-22 187 -25 225 l-6 71 53 26 52 27 -67 0 c-79 1 -74 -7 -87 146 -8 108 -4
127 40 185 30 40 43 76 58 171 6 37 17 84 25 105 11 33 11 48 0 96 l-14 57
113 265 112 265 75 27 c104 37 184 78 230 120 44 40 62 88 159 424 44 154 137
599 202 970 11 63 31 171 44 240 72 369 184 1048 215 1303 11 89 20 205 20
260 0 87 -4 112 -37 210 -44 135 -193 434 -286 574 -76 115 -128 164 -276 264
-331 223 -825 377 -1096 342z"/>
</g>
</svg>
